<?xml version="1.0" standalone="no"?>
<!DOCTYPE svg PUBLIC "-//W3C//DTD SVG 20010904//EN"
 "http://www.w3.org/TR/2001/REC-SVG-20010904/DTD/svg10.dtd">
<svg version="1.0" xmlns="http://www.w3.org/2000/svg"
 width="1024.000000pt" height="1024.000000pt" viewBox="0 0 1024.000000 1024.000000"
 preserveAspectRatio="xMidYMid meet">

<g transform="translate(0.000000,1024.000000) scale(0.100000,-0.100000)"
fill="#000000" stroke="none">
<path d="M4610 8739 c0 -8 23 -27 52 -44 28 -16 64 -48 79 -69 60 -82 18 -122
-59 -55 -25 23 -39 28 -60 23 -384 -86 -847 -311 -1219 -591 -185 -139 -291
-231 -438 -378 -135 -134 -292 -321 -326 -388 -11 -21 -37 -104 -59 -185 -21
-81 -68 -235 -105 -342 -183 -537 -229 -864 -221 -1575 4 -376 4 -381 29 -445
34 -92 69 -158 109 -207 73 -91 127 -107 93 -27 -34 82 -46 165 -51 366 -5
213 4 292 37 347 35 58 63 34 135 -115 103 -215 272 -815 325 -1152 10 -70 14
-77 99 -186 115 -146 204 -225 288 -250 32 -10 28 7 -17 78 -87 138 -193 389
-231 549 -27 108 -36 303 -21 442 23 213 71 356 138 416 48 42 82 39 128 -13
34 -37 58 -83 168 -320 22 -48 42 -78 52 -78 21 0 19 23 -10 137 -38 149 -48
251 -42 418 4 110 11 169 26 224 45 155 118 251 190 251 34 0 98 -67 131 -137
44 -94 55 -81 56 68 0 68 7 147 14 174 17 66 61 152 97 191 33 35 81 69 88 62
3 -3 0 -49 -6 -104 -11 -110 -3 -199 20 -199 8 0 29 35 48 82 36 85 123 200
175 231 25 15 30 14 90 -16 65 -33 158 -106 147 -116 -3 -4 -33 -13 -65 -22
-72 -18 -178 -75 -182 -97 -3 -12 7 -17 45 -19 l48 -3 -45 -14 c-71 -21 -161
-70 -217 -118 -63 -53 -69 -77 -18 -71 19 2 35 3 35 2 0 0 -29 -20 -64 -43
-73 -47 -166 -143 -166 -172 0 -22 0 -22 34 -9 14 5 26 7 26 3 0 -3 -25 -32
-55 -64 -77 -81 -127 -187 -133 -285 -2 -41 -1 -74 3 -74 4 0 27 22 52 50 48
54 101 95 110 87 3 -3 -15 -34 -40 -69 -96 -135 -127 -224 -134 -379 -4 -90
-2 -127 11 -172 18 -63 31 -71 47 -29 18 47 71 153 75 149 2 -2 -2 -41 -8 -86
-16 -105 4 -236 49 -326 29 -59 63 -85 63 -48 1 10 12 -10 25 -43 24 -65 66
-137 86 -149 17 -11 30 16 25 48 -3 15 -1 27 4 27 6 0 10 -5 10 -11 0 -5 12
-36 27 -67 38 -80 157 -202 198 -202 4 0 4 24 0 53 l-7 52 30 -45 c39 -59 84
-101 156 -144 86 -52 116 -47 81 14 -25 43 -17 43 33 -1 58 -51 177 -110 239
-117 46 -5 46 -5 39 22 -3 14 -4 26 -1 26 3 0 70 -31 149 -69 255 -122 408
-239 507 -389 49 -74 87 -158 76 -168 -12 -13 -151 27 -215 61 -73 38 -132 86
-299 239 -183 168 -314 239 -505 272 -384 67 -748 -127 -911 -485 -93 -205
-104 -478 -28 -695 160 -457 700 -760 1261 -707 72 6 138 15 147 18 13 5 15 3
9 -13 -20 -48 -19 -54 7 -54 92 0 229 57 308 128 28 25 52 43 54 40 3 -2 -5
-21 -16 -42 -32 -60 -13 -65 78 -20 86 43 179 126 232 209 l33 50 -6 -35 c-3
-19 -8 -45 -12 -58 -20 -70 126 41 196 150 20 31 43 78 50 105 16 59 16 59 36
42 14 -11 19 -10 35 11 47 61 89 180 89 253 0 33 3 38 19 32 15 -4 22 3 36 37
23 57 32 222 15 295 l-12 56 32 25 c84 66 215 272 255 402 9 30 27 109 39 175
20 105 24 117 35 98 6 -13 17 -57 24 -98 13 -87 29 -96 57 -32 46 105 49 238
8 427 -26 122 -28 262 -4 353 10 38 16 71 12 74 -23 24 -188 -116 -261 -222
-21 -30 -40 -55 -42 -55 -10 0 14 60 39 94 15 21 28 48 28 60 0 36 -43 98 -90
131 -52 35 -89 102 -115 205 -26 104 -48 133 -155 204 -94 63 -190 141 -190
154 0 4 38 27 84 51 98 52 107 50 126 -29 15 -62 32 -68 110 -41 33 12 76 21
95 21 59 0 151 37 272 111 97 59 174 99 189 99 9 0 3 -37 -9 -55 -19 -28 -21
-149 -2 -185 20 -40 74 -70 124 -70 47 0 51 9 17 45 -37 40 -38 71 -4 111 18
21 32 49 35 74 8 55 20 63 79 48 66 -16 74 -24 74 -68 0 -26 8 -48 25 -68 30
-36 31 -72 5 -131 -25 -53 -25 -51 4 -51 63 0 136 94 136 177 0 39 2 43 25 43
34 0 49 -32 42 -92 -7 -59 7 -63 52 -13 43 49 56 106 41 175 -16 71 -24 86
-74 136 -23 22 -49 52 -58 66 -14 20 -28 27 -75 32 -32 4 -96 20 -143 37 -190
67 -199 69 -238 60 -20 -5 -77 -27 -127 -49 -105 -46 -182 -65 -247 -60 l-47
3 31 50 c18 28 45 81 60 120 16 38 38 79 48 90 30 32 41 74 47 178 3 54 10
100 14 103 17 10 9 106 -15 177 -13 40 -26 100 -29 134 -6 72 -40 142 -103
212 -23 26 -49 63 -57 84 -20 47 -93 125 -163 173 -30 20 -54 41 -54 45 0 21
-71 85 -146 131 -46 28 -84 54 -84 58 0 3 -34 44 -75 89 -62 69 -78 94 -95
148 -11 36 -20 73 -20 83 0 39 41 147 64 169 l24 23 64 -25 c35 -14 88 -30
119 -37 87 -17 135 -66 130 -132 -1 -20 -56 -38 -119 -38 -57 0 -51 -16 19
-53 50 -27 60 -28 139 -24 47 2 95 8 106 12 19 6 21 3 17 -18 -5 -24 -3 -24
69 -29 138 -10 240 -69 335 -193 59 -77 83 -137 67 -163 -19 -30 -63 -56 -105
-61 -24 -3 -44 -11 -46 -17 -6 -19 73 -44 138 -44 67 0 70 -10 12 -38 -41 -20
-43 -34 -6 -44 40 -11 114 7 210 52 153 71 168 84 145 120 -10 16 -9 25 8 52
18 31 27 78 14 78 -3 0 -23 -10 -44 -22 -21 -13 -41 -20 -44 -17 -3 3 0 20 6
37 10 26 18 32 41 32 33 0 77 21 128 61 23 18 40 25 49 19 10 -6 8 -17 -13
-53 -15 -25 -27 -50 -27 -56 0 -18 35 -12 85 14 26 14 55 23 64 20 10 -3 26 4
39 18 32 34 82 142 88 191 11 81 -50 246 -91 246 -8 0 -21 -16 -29 -35 -21
-49 -50 -46 -122 13 -108 87 -134 121 -134 172 -1 67 -30 123 -88 165 -28 20
-64 57 -81 83 -52 79 -87 115 -137 142 -39 20 -56 38 -88 94 -55 97 -150 193
-270 275 -56 38 -126 88 -156 112 -62 49 -58 57 34 78 47 10 59 10 85 -4 17
-8 38 -27 47 -40 39 -60 69 -9 61 107 -9 131 -72 239 -180 309 -106 69 -157
64 -104 -9 82 -115 69 -185 -21 -112 -30 24 -48 30 -97 32 l-60 3 -14 58 c-8
33 -19 57 -26 57 -13 0 -17 -12 -30 -91 l-7 -36 -101 -12 c-56 -7 -133 -19
-170 -27 -38 -8 -75 -14 -82 -14 -8 0 -23 28 -36 70 -34 103 -52 93 -65 -39
l-7 -59 -91 -27 c-299 -91 -641 -264 -883 -446 -51 -38 -93 -64 -93 -59 0 20
67 157 101 207 44 65 104 130 161 176 49 38 57 61 38 97 -14 26 -4 46 31 60
41 17 78 5 126 -42 22 -22 46 -37 52 -34 15 10 14 91 -3 154 -31 116 -116 214
-241 278 -65 33 -87 38 -160 42 -68 4 -85 2 -85 -9z m257 -101 c92 -58 157
-142 178 -230 l7 -28 -36 15 c-64 27 -126 15 -170 -34 -14 -16 -17 -30 -13
-63 6 -41 5 -43 -59 -101 -36 -33 -85 -88 -110 -122 -90 -127 -181 -355 -228
-575 -123 -570 6 -1012 354 -1220 102 -61 201 -89 346 -100 158 -11 204 -31
298 -130 49 -52 69 -82 81 -121 8 -29 15 -59 15 -66 0 -7 5 -13 10 -13 13 0
13 85 -1 133 -6 21 -26 55 -44 76 -32 36 -34 40 -24 76 14 49 4 126 -23 179
-12 23 -53 88 -91 146 -180 268 -239 487 -193 722 71 359 344 597 713 623 l88
7 157 -82 c116 -60 174 -97 223 -142 64 -59 92 -95 81 -105 -9 -10 -212 59
-287 98 -41 22 -101 62 -131 89 -31 28 -59 50 -62 50 -3 0 -6 -12 -6 -26 0
-45 51 -135 110 -194 l58 -58 -107 -4 c-94 -3 -114 -7 -173 -35 -118 -55 -211
-162 -249 -284 -24 -77 -25 -218 -3 -308 38 -152 98 -244 289 -441 148 -153
195 -217 265 -363 58 -119 79 -192 87 -302 20 -274 -152 -560 -416 -694 -69
-36 -72 -13 -8 62 33 39 64 89 77 124 16 44 31 65 60 85 22 15 52 46 67 69 25
38 28 53 30 128 0 47 6 99 12 114 26 67 0 149 -64 206 -37 32 -162 98 -170 89
-2 -2 26 -24 62 -48 36 -25 79 -64 97 -88 34 -48 35 -54 19 -233 -10 -119 -19
-138 -87 -195 -32 -27 -50 -52 -65 -93 -27 -75 -141 -211 -177 -211 -34 0 -30
-14 12 -33 55 -27 129 -102 216 -219 85 -115 126 -154 257 -241 46 -30 92 -68
102 -84 10 -15 33 -73 50 -128 39 -127 60 -163 117 -200 65 -43 89 -77 74
-110 -16 -34 -32 -32 -32 5 0 21 -11 42 -34 68 -37 40 -59 38 -32 -3 9 -14 22
-59 30 -101 12 -72 12 -76 -8 -90 -11 -8 -31 -14 -44 -14 -22 0 -24 3 -18 33
21 99 19 130 -14 181 -17 26 -33 46 -35 44 -3 -2 4 -29 14 -59 21 -59 23 -41
-26 -218 -2 -10 -12 -12 -35 -7 -49 10 -53 20 -24 68 33 56 32 69 -2 143 -15
33 -34 80 -42 104 -19 58 -47 71 -92 43 -19 -12 -43 -30 -53 -42 -26 -28 -52
-25 -70 10 -16 32 -17 31 50 66 30 15 67 98 59 131 -16 61 -131 149 -283 217
-131 58 -226 122 -285 190 -25 30 -66 66 -91 80 -32 19 -55 45 -85 94 -48 82
-51 101 -11 73 54 -39 69 -26 106 89 10 30 38 92 61 138 41 76 44 87 38 135
-5 45 3 102 23 153 3 8 1 14 -5 14 -15 0 -50 -90 -61 -160 -12 -74 -26 -95
-44 -65 -23 38 -35 80 -36 120 -2 63 -21 21 -21 -45 0 -40 7 -67 24 -97 l24
-41 -33 -83 c-18 -45 -36 -91 -38 -101 -5 -17 -9 -18 -27 -8 -12 6 -39 27 -60
46 -20 19 -41 34 -45 34 -13 0 4 -89 29 -150 13 -33 21 -62 18 -65 -7 -7 -111
-6 -139 1 -15 4 -31 25 -47 59 -46 102 -138 142 -302 132 -76 -4 -108 -12
-181 -42 -96 -40 -95 -40 -170 -30 -56 8 -107 0 -98 -15 3 -6 20 -10 36 -10
17 0 39 -5 49 -10 17 -9 10 -18 -61 -89 -43 -44 -79 -85 -79 -91 0 -6 33 14
73 43 155 116 263 166 399 187 114 17 214 -5 261 -58 46 -51 59 -162 32 -262
-9 -30 -22 -90 -29 -133 -18 -97 -55 -177 -141 -303 l-67 -98 21 -18 c28 -22
120 -56 186 -69 27 -6 95 -9 150 -8 55 1 114 -3 130 -9 17 -6 43 -14 58 -19
19 -5 37 -23 55 -54 l26 -47 -29 -30 c-33 -35 -50 -32 -65 11 -8 26 -23 38
-75 63 -36 18 -65 28 -65 24 0 -5 23 -28 50 -51 41 -35 50 -48 50 -75 0 -27
-5 -34 -31 -43 -18 -6 -33 -11 -35 -11 -1 0 -8 16 -14 35 -9 29 -17 35 -48 41
-20 3 -57 20 -82 37 l-45 32 -205 8 c-265 11 -279 18 -222 118 15 27 30 49 34
49 4 0 8 -12 10 -27 2 -14 9 -28 16 -31 10 -3 12 36 10 180 -3 204 2 231 69
336 27 43 30 53 16 50 -30 -6 -108 -120 -129 -188 -13 -45 -27 -69 -49 -86
-28 -21 -50 -28 -166 -55 -24 -6 -46 -22 -68 -49 -37 -46 -24 -52 31 -13 41
28 148 46 148 25 0 -5 15 -32 34 -60 l35 -50 -35 -53 c-44 -68 -51 -96 -33
-128 27 -50 67 -59 284 -68 l200 -9 49 -32 c28 -18 60 -32 73 -32 17 0 29 -12
49 -51 23 -47 25 -59 19 -120 -9 -84 5 -90 59 -27 35 40 56 91 56 134 0 12 6
27 13 33 24 20 60 -34 78 -118 6 -28 15 -54 20 -57 6 -3 20 17 31 45 12 28 28
51 34 51 23 0 217 -136 307 -215 102 -89 187 -189 252 -296 49 -81 100 -198
110 -251 6 -31 3 -35 -52 -71 -74 -49 -176 -98 -209 -100 -23 -2 -28 4 -43 53
-54 169 -167 312 -340 429 -123 83 -244 132 -536 212 -263 73 -419 143 -574
259 -185 138 -310 316 -378 537 -25 81 -27 102 -27 268 -1 141 3 197 17 260
45 194 148 390 277 528 98 106 311 257 360 257 23 0 60 -65 60 -104 0 -42 18
-39 31 5 12 38 11 45 -15 95 -65 124 -230 280 -346 326 -45 18 -75 22 -165 23
-98 0 -116 -3 -165 -26 -93 -44 -160 -123 -205 -243 -20 -53 -24 -58 -29 -36
-19 76 -38 325 -43 540 -6 261 9 468 46 675 31 169 11 122 -29 -67 -75 -361
-83 -703 -25 -1103 14 -96 25 -176 25 -179 0 -3 -16 6 -36 19 -46 31 -115 34
-161 5 -98 -59 -172 -246 -189 -478 -4 -51 -9 -91 -11 -89 -18 19 -81 459 -95
664 -26 387 44 926 163 1271 46 133 188 414 274 542 196 292 440 539 666 671
85 49 94 49 73 2 -97 -222 -164 -509 -193 -828 -7 -66 -13 -136 -15 -155 -10
-82 15 15 49 195 75 396 143 636 226 794 27 52 49 100 49 107 0 24 -37 16
-168 -37 -183 -73 -279 -120 -422 -205 -324 -193 -586 -441 -775 -734 -69
-108 -218 -389 -264 -500 -109 -262 -186 -619 -222 -1025 -17 -190 -14 -618 5
-825 9 -96 16 -181 16 -190 -1 -8 -23 44 -49 117 -120 327 -208 426 -289 327
-53 -65 -66 -133 -63 -357 1 -108 6 -218 10 -243 14 -75 -14 -34 -55 81 -30
85 -34 107 -28 150 4 27 8 232 9 455 2 432 9 525 61 810 34 187 83 365 159
585 36 104 81 251 101 328 19 77 44 156 54 177 42 83 264 334 423 478 440 400
957 699 1431 827 l89 24 28 -23 c16 -13 34 -26 41 -29 9 -3 6 -12 -11 -31 -39
-41 -20 -39 52 6 85 54 96 79 67 144 -11 27 -28 57 -38 67 -16 19 -16 19 8 12
14 -4 53 -26 87 -47z m1663 -233 c41 -60 68 -125 76 -186 l7 -50 -34 20 c-43
26 -75 26 -169 0 l-75 -20 -22 28 c-28 34 -93 156 -93 173 0 21 75 5 113 -24
47 -36 110 -36 133 -1 16 24 14 66 -3 112 -12 31 35 -6 67 -52z m-326 -107
c51 -116 113 -196 239 -304 41 -35 47 -45 47 -78 0 -44 2 -45 -85 34 -28 25
-72 59 -97 77 -34 23 -56 49 -78 93 -38 75 -90 283 -64 257 3 -3 21 -39 38
-79z m-77 -1 c7 -40 22 -102 33 -136 25 -70 31 -57 -56 -120 l-40 -30 -50 29
c-80 45 -223 216 -224 267 0 13 61 29 190 47 147 21 134 27 147 -57z m-384 -3
c35 -87 95 -171 174 -244 67 -61 105 -82 395 -219 91 -43 161 -92 236 -165 84
-81 108 -114 93 -129 -13 -13 -15 -107 -2 -107 11 0 21 25 21 55 0 13 10 29
24 39 24 15 27 14 75 -24 58 -46 96 -63 122 -55 12 4 23 -3 36 -20 61 -89 112
-126 58 -43 -45 69 -66 88 -99 88 -38 1 -60 13 -123 67 -26 23 -59 51 -72 61
-24 19 -22 42 4 42 7 0 34 -16 60 -36 56 -42 84 -54 133 -54 58 0 96 -32 170
-142 17 -25 48 -56 67 -68 46 -29 82 -76 90 -121 6 -33 3 -41 -29 -77 -20 -22
-36 -42 -36 -46 0 -3 16 2 35 11 34 16 36 16 56 -4 20 -20 20 -22 4 -47 -19
-28 -8 -34 24 -14 15 9 24 7 50 -11 27 -19 29 -25 20 -43 -10 -19 -9 -20 16
-14 22 6 34 2 54 -17 46 -44 93 -43 128 2 11 14 14 14 23 1 37 -54 38 -151 4
-233 -33 -80 -41 -87 -62 -61 -27 35 -63 52 -120 60 -30 4 -58 12 -63 18 -5 6
-24 31 -42 56 -52 72 -140 124 -287 170 -108 34 -134 46 -158 75 -16 18 -39
38 -50 44 -25 14 -82 14 -102 1 -12 -8 -9 -10 12 -10 49 0 75 -17 92 -59 10
-27 22 -41 34 -41 10 0 26 -6 35 -12 16 -12 14 -15 -13 -33 -17 -11 -33 -28
-36 -38 -6 -20 61 -145 125 -232 20 -27 49 -72 65 -98 42 -74 86 -118 140
-142 l50 -22 -98 -46 c-54 -26 -103 -47 -108 -47 -5 0 -2 10 6 22 9 12 16 31
16 41 0 16 -6 17 -62 12 l-63 -6 27 21 c66 51 56 134 -32 252 -82 112 -177
176 -294 199 l-59 12 23 19 c20 16 22 22 12 36 -40 55 -49 102 -32 161 11 40
7 49 -14 32 -12 -10 -21 -9 -48 5 -25 13 -71 19 -188 25 -145 7 -197 15 -234
36 -8 4 45 8 127 8 99 1 166 6 221 19 93 21 90 39 -4 26 -64 -9 -200 -14 -200
-6 0 2 7 20 15 39 19 46 19 88 0 133 l-15 36 28 -7 c62 -15 175 -79 230 -130
33 -30 62 -55 66 -55 19 0 0 37 -41 81 -45 49 -90 74 -274 157 -37 16 -85 47
-108 67 -46 42 -48 59 -4 27 57 -40 151 -80 248 -107 118 -32 144 -44 199 -95
42 -38 126 -87 126 -72 0 4 -25 32 -56 62 -31 30 -69 82 -86 115 -20 38 -60
90 -112 141 -74 73 -95 88 -246 164 -145 74 -173 93 -235 155 -78 77 -138 181
-174 299 -18 59 -29 137 -17 125 2 -2 15 -32 29 -65z m-53 -86 c12 -40 35 -99
52 -131 16 -33 27 -61 25 -63 -2 -3 -40 -6 -85 -8 -120 -5 -133 -21 -47 -56
31 -12 57 -25 59 -29 3 -4 -40 -5 -93 -3 -110 5 -175 -9 -271 -58 -92 -46
-101 -74 -22 -69 20 1 51 1 67 -1 24 -1 16 -5 -35 -19 -135 -37 -259 -119
-335 -223 -25 -33 -45 -64 -45 -69 0 -15 26 -10 78 16 47 24 149 51 158 43 2
-2 -24 -22 -57 -44 -101 -65 -209 -218 -226 -317 -8 -49 8 -48 62 2 40 36 105
78 105 67 0 -3 -20 -36 -45 -74 -76 -118 -115 -251 -101 -345 8 -55 20 -59 44
-16 9 17 25 41 35 53 l18 21 -6 -30 c-18 -77 -23 -166 -15 -233 10 -78 46
-175 63 -169 6 2 16 35 23 74 11 65 37 138 53 148 4 2 8 -44 8 -103 0 -112 17
-203 52 -284 19 -44 19 -47 2 -53 -29 -9 -203 13 -264 34 -232 80 -395 266
-464 530 -20 77 -26 128 -30 261 -6 184 8 316 54 499 31 124 47 145 193 255
159 120 365 240 560 327 115 51 357 138 387 138 18 1 24 -10 43 -71z m-1490
-110 c-152 -134 -205 -186 -285 -280 -207 -241 -349 -477 -460 -762 -174 -447
-226 -1034 -145 -1642 19 -144 73 -425 91 -471 7 -18 -5 -10 -43 30 -78 82
-143 88 -212 21 -138 -134 -203 -591 -130 -916 17 -74 111 -323 159 -420 l27
-53 -46 45 c-26 25 -73 82 -105 127 -54 76 -59 88 -71 165 -6 46 -29 161 -51
257 -162 721 -186 1371 -72 2001 74 416 166 665 375 1017 202 339 514 640 878
848 63 36 117 65 120 65 3 0 -11 -15 -30 -32z m2010 -69 c0 -5 14 -28 32 -50
17 -21 29 -41 27 -43 -2 -2 -35 8 -73 22 l-69 26 32 28 c33 29 51 35 51 17z
m-351 -124 l43 -43 -35 -4 c-32 -3 -41 2 -89 50 l-53 55 45 -8 c34 -5 55 -17
89 -50z m577 -48 c80 -77 104 -88 104 -46 0 11 4 17 10 14 17 -10 58 -88 65
-125 l8 -35 -65 60 c-35 33 -99 80 -141 105 -54 32 -77 52 -82 70 -3 14 -9 34
-12 45 -5 18 -4 19 13 6 10 -8 56 -50 100 -94z m183 14 c87 -67 128 -110 183
-195 42 -65 48 -86 19 -65 -10 8 -50 35 -89 61 -61 42 -77 61 -135 153 -36 58
-63 105 -61 105 3 0 40 -27 83 -59z m-895 -17 c15 -9 4 -15 -69 -38 l-87 -27
-49 20 c-26 12 -57 21 -68 21 -34 0 -33 19 1 29 42 13 247 9 272 -5z m-284
-142 c-19 -15 -58 -49 -87 -75 l-52 -49 -83 -3 c-46 -1 -92 -5 -103 -9 -11 -4
-1 10 24 33 70 65 221 129 306 130 l30 0 -35 -27z m-238 -264 c-11 -18 -27
-54 -37 -80 -13 -34 -24 -48 -43 -53 -14 -3 -44 -15 -66 -26 -22 -10 -41 -19
-43 -19 -27 0 78 131 139 173 64 45 75 46 50 5z m930 -59 c24 -13 31 -43 18
-89 -13 -48 -42 -66 -93 -56 -51 9 -71 38 -72 99 0 49 1 52 30 58 33 7 91 1
117 -12z m-187 -46 c4 -27 11 -56 17 -66 14 -26 5 -31 -36 -17 -20 6 -43 10
-52 8 -14 -3 -13 -7 6 -31 17 -22 20 -31 11 -40 -9 -9 -22 -1 -57 35 -46 49
-56 86 -30 108 16 13 104 49 122 50 7 0 15 -21 19 -47z m-179 -85 c9 -18 34
-49 54 -68 l38 -35 -22 -52 c-11 -29 -27 -53 -34 -53 -29 0 -100 46 -135 87
-17 20 -17 23 -3 52 15 29 74 101 82 101 2 0 11 -15 20 -32z m-663 -150 l-6
-82 -55 -53 -54 -54 7 38 c12 68 90 233 110 233 2 0 2 -37 -2 -82z m1340 -19
c22 -10 24 -15 16 -37 -11 -29 -28 -44 -79 -71 -71 -37 -77 -37 -82 13 -3 24
-15 57 -26 74 -12 16 -18 33 -14 37 10 10 154 -2 185 -16z m-768 -17 c17 -16
53 -37 78 -48 44 -18 45 -20 52 -73 4 -30 9 -60 12 -68 7 -18 -43 -17 -121 3
-88 23 -89 25 -83 116 5 72 11 98 24 98 3 0 20 -13 38 -28z m791 -107 c4 -14
4 -28 1 -31 -11 -12 -154 -44 -192 -43 l-40 0 60 22 c33 13 80 34 105 49 57
33 58 33 66 3z m522 -61 c26 -17 34 -34 56 -115 9 -30 27 -72 41 -92 l25 -37
-28 14 c-40 21 -58 44 -96 129 -25 55 -45 82 -67 96 -20 13 -26 21 -17 24 18
8 58 -1 86 -19z m-1861 -182 c-8 -9 -26 -39 -40 -67 l-25 -50 -7 48 c-9 56 8
182 31 235 l17 37 20 -93 c18 -83 18 -94 4 -110z m1789 146 c12 -11 34 -53 49
-94 15 -41 32 -74 38 -74 6 0 8 -3 5 -6 -21 -20 -98 60 -147 154 -26 50 8 62
55 20z m229 -21 c85 -57 109 -97 94 -152 -10 -33 -13 -36 -37 -30 -68 17 -116
81 -129 170 -6 46 -6 47 18 40 13 -4 38 -17 54 -28z m-1400 -12 c44 -8 81 -15
81 -15 1 0 29 -34 63 -75 l62 -75 -78 0 c-43 -1 -98 -5 -123 -10 -40 -8 -47
-6 -62 13 -19 24 -68 149 -68 174 0 11 6 14 23 9 12 -4 58 -13 102 -21z m1570
-144 c5 -10 -35 -44 -43 -37 -6 7 18 46 28 46 5 0 11 -4 15 -9z m127 -63 c-7
-7 -12 -8 -12 -2 0 14 12 26 19 19 2 -3 -1 -11 -7 -17z m-1380 -61 c54 -31
100 -62 103 -67 4 -6 -22 -10 -68 -10 -41 0 -108 -9 -152 -20 -75 -19 -79 -19
-98 -3 -34 30 -118 135 -113 140 13 13 78 22 151 20 79 -2 83 -3 177 -60z
m1013 47 c44 -16 47 -18 30 -30 -31 -23 -62 -17 -85 16 -25 36 -16 38 55 14z
m-1827 -79 c31 -51 32 -56 19 -82 -8 -15 -18 -44 -22 -63 l-8 -35 -13 44 c-17
56 -30 191 -18 191 5 0 24 -25 42 -55z m1856 -10 c-7 -17 -30 -20 -38 -6 -4 5
0 12 6 14 25 10 37 7 32 -8z m70 -56 c-3 -5 -11 -9 -19 -9 -8 0 -16 4 -19 9
-3 5 5 9 19 9 14 0 22 -4 19 -9z m-957 -44 c51 -26 183 -131 190 -151 3 -8
-11 -9 -49 -2 -59 11 -130 5 -231 -19 l-69 -17 -26 35 c-15 19 -49 58 -76 86
-53 58 -55 54 31 78 83 23 172 19 230 -10z m-817 -131 c33 -67 20 -152 -13
-87 -15 29 -57 163 -57 179 1 15 49 -48 70 -92z m-90 -10 c25 -81 25 -83 0
-77 -34 9 -42 28 -35 87 4 31 9 56 11 56 2 0 12 -30 24 -66z m1096 -70 c19 -9
56 -41 83 -71 49 -55 107 -150 98 -160 -3 -3 -32 5 -64 18 -49 19 -79 23 -197
25 l-138 3 -44 75 c-43 74 -51 96 -36 96 4 1 30 7 57 15 71 20 199 19 241 -1z
m79 -250 c74 -26 90 -39 118 -102 29 -65 52 -150 43 -159 -3 -3 -33 6 -67 21
-55 25 -121 41 -263 63 l-49 8 -28 88 c-19 61 -23 90 -16 92 37 12 60 14 132
10 44 -2 103 -12 130 -21z m-2225 0 c0 -4 -19 -28 -42 -53 -24 -26 -53 -60
-65 -76 l-22 -30 0 27 c-1 15 4 49 10 77 9 43 14 50 37 54 46 7 82 7 82 1z
m370 -229 c10 -12 6 -18 -22 -35 -18 -11 -38 -20 -44 -20 -18 0 -105 32 -100
37 2 3 22 11 43 18 50 19 108 19 123 0z m1798 -10 c42 -9 102 -28 132 -43 55
-27 55 -27 64 -85 9 -59 2 -152 -14 -177 -21 -33 -277 55 -326 113 -17 19 -19
35 -16 115 l3 92 40 0 c22 0 75 -7 117 -15z m-1969 -109 c-2 -1 -34 -28 -70
-58 l-66 -56 -54 12 -54 13 42 26 c47 30 146 66 182 67 13 0 22 -2 20 -4z
m1857 -161 c54 -33 195 -85 230 -85 7 0 14 -6 14 -12 0 -27 -53 -146 -89 -198
-34 -51 -39 -55 -71 -52 -42 3 -109 42 -168 95 -65 61 -66 64 -28 153 18 44
36 91 40 107 3 15 8 27 10 27 2 0 30 -16 62 -35z m-2091 -64 c-23 -34 -32 -39
-73 -44 -26 -3 -58 -9 -72 -13 -23 -7 -24 -6 -11 10 16 19 54 42 116 68 61 26
68 22 40 -21z m-157 -248 c-48 -103 -54 -112 -87 -122 -20 -6 -52 -22 -71 -36
-19 -14 -36 -21 -38 -15 -8 22 50 123 100 176 46 49 137 118 145 110 2 -1 -20
-52 -49 -113z m2134 35 c35 -35 87 -74 116 -87 28 -14 52 -28 52 -32 0 -11
-165 -163 -193 -178 -34 -18 -65 -9 -106 31 -39 38 -91 115 -91 136 0 8 34 50
75 94 41 44 75 84 75 89 0 15 5 11 72 -53z m889 -69 c61 -25 130 -45 165 -48
34 -4 69 -13 77 -20 30 -24 50 -171 23 -171 -19 0 -31 18 -50 77 -21 64 -31
72 -106 88 -77 16 -77 -1 0 -30 l54 -20 22 -75 23 -75 -23 -24 c-32 -31 -53
-22 -61 26 -14 90 -13 88 -90 104 -22 4 -52 11 -67 15 -36 8 -73 -28 -81 -82
-4 -22 -15 -48 -25 -58 -18 -16 -20 -15 -41 1 -21 17 -21 21 -10 63 11 40 10
51 -9 93 -22 50 -40 60 -49 27 -3 -12 -27 -30 -62 -45 -31 -15 -88 -46 -127
-71 -110 -68 -192 -102 -270 -114 -40 -5 -84 -14 -98 -20 -40 -15 -40 -15 -60
42 l-18 52 28 20 c16 11 61 51 100 88 39 38 82 71 95 74 13 3 69 9 124 14 108
10 168 27 285 84 90 44 104 44 251 -15z m-1123 -131 c17 -29 48 -71 71 -93 23
-21 41 -42 41 -46 0 -3 -30 -21 -67 -40 l-66 -34 -23 30 c-13 17 -46 60 -73
97 l-50 67 62 35 c34 19 65 35 69 36 3 0 20 -24 36 -52z m1460 -50 c2 -9 -7
-31 -18 -49 -19 -29 -21 -30 -16 -9 3 14 6 38 6 53 0 30 22 34 28 5z m-2219
-47 c18 -5 28 -20 42 -68 11 -34 37 -85 59 -114 21 -29 37 -56 34 -60 -4 -8
-113 -3 -162 7 -13 3 -35 23 -51 50 -26 40 -29 51 -24 107 2 34 6 68 8 75 5
13 53 15 94 3z m143 -33 c59 -49 98 -89 145 -145 l43 -51 -50 -7 c-41 -6 -56
-3 -84 14 -54 33 -103 106 -124 184 -10 34 -9 37 10 37 11 0 38 -15 60 -32z
m2118 3 c0 -40 -11 -91 -20 -91 -13 0 -19 71 -8 96 15 32 28 30 28 -5z m-3511
-146 c-9 -124 -14 -152 -29 -162 -10 -7 -32 -35 -50 -63 -18 -27 -34 -50 -37
-50 -3 0 -3 44 -1 98 4 71 12 115 31 164 23 60 87 172 94 165 1 -2 -2 -70 -8
-152z m2957 16 c8 -37 8 -51 0 -48 -19 6 -50 72 -43 91 12 30 30 12 43 -43z
m368 -36 c-9 -19 -19 -35 -23 -35 -13 0 2 96 18 114 15 18 16 17 19 -13 2 -17
-4 -46 -14 -66z m-2184 -39 c-15 -15 -32 7 -24 29 7 17 8 17 21 -1 9 -12 10
-21 3 -28z m548 -51 c15 -7 83 -41 152 -74 138 -65 220 -130 220 -172 0 -40
-23 -72 -60 -84 -36 -12 -55 -41 -95 -141 -21 -52 -7 -114 35 -156 41 -40 50
-36 50 25 0 64 18 93 64 101 21 4 45 19 59 36 37 44 57 42 72 -5 6 -22 21 -59
33 -82 27 -52 28 -77 3 -111 -10 -15 -21 -40 -25 -55 -9 -38 -56 -58 -104 -45
-18 5 -36 7 -40 4 -12 -13 24 -59 66 -83 59 -35 107 -28 185 27 49 35 56 38
42 17 -9 -14 -25 -27 -35 -30 -11 -3 -20 -12 -20 -21 0 -22 41 -36 84 -29 20
3 36 4 36 2 0 -2 -10 -29 -21 -59 -29 -75 -40 -260 -15 -260 9 0 27 23 45 58
16 31 41 68 55 81 l26 24 0 -25 c0 -71 -91 -305 -146 -374 -14 -19 -15 -19
-27 0 -7 11 -31 43 -54 72 -46 58 -50 66 -30 63 45 -6 41 14 -19 108 -64 100
-194 209 -305 255 -27 11 -49 24 -49 29 0 4 26 9 57 11 83 4 82 24 -4 80 -70
46 -145 79 -220 98 -42 11 -43 11 -43 54 0 24 -5 57 -11 75 -18 50 -3 49 46
-4 24 -27 48 -45 52 -41 15 15 6 94 -17 140 -15 32 -41 61 -79 89 -61 45 -49
43 -231 31 -109 -7 -223 6 -255 30 -16 11 -12 16 31 41 120 69 197 151 210
224 12 64 19 71 77 72 29 0 70 4 92 8 61 13 85 12 113 -4z m-324 -15 c3 -3 0
-26 -6 -50 -15 -58 -85 -128 -202 -201 -54 -34 -85 -60 -84 -69 2 -8 37 -29
78 -47 56 -24 70 -34 56 -39 -25 -10 -151 3 -212 21 -80 23 -81 31 -23 111 56
75 100 157 118 219 7 22 14 46 17 53 3 11 31 13 128 10 69 -2 127 -5 130 -8z
m-1319 -268 c18 -56 23 -87 17 -95 -6 -7 -13 -29 -17 -49 -4 -21 -11 -38 -15
-38 -13 0 -30 95 -30 168 0 61 10 130 16 107 1 -6 14 -47 29 -93z m631 14 c-8
-34 -21 -33 -36 4 -11 27 -11 32 6 45 17 12 20 12 28 -5 5 -10 6 -30 2 -44z
m924 -153 c76 -50 128 -128 56 -84 -18 12 -38 21 -44 21 -14 0 -101 53 -102
62 0 6 21 12 55 17 6 0 22 -6 35 -16z m-113 -39 c49 -32 54 -39 48 -63 -10
-43 -24 -49 -45 -21 -61 80 -60 80 -101 80 -47 0 -51 13 -6 28 47 15 45 15
104 -24z m496 3 c2 -7 -5 -32 -18 -57 -20 -39 -23 -41 -29 -23 -7 23 17 93 32
93 6 0 12 -6 15 -13z m-1833 -52 c26 -45 30 -61 24 -92 -10 -59 -19 -69 -32
-36 -23 57 -42 183 -28 183 3 0 19 -25 36 -55z m1445 -55 c22 -42 19 -53 -10
-34 -24 16 -33 43 -18 57 10 10 11 9 28 -23z m1141 3 c-20 -52 -17 -171 8
-295 31 -152 43 -278 29 -303 -9 -15 -12 -13 -22 15 -16 48 -59 100 -82 100
-10 0 -19 -4 -19 -9 0 -6 -7 -61 -15 -123 -37 -283 -127 -475 -293 -629 -166
-153 -388 -239 -615 -239 -163 1 -325 70 -527 227 -148 115 -290 213 -361 248
-66 34 -188 65 -253 65 -72 0 -181 -25 -246 -57 -75 -36 -225 -187 -268 -270
-142 -272 -67 -622 185 -852 173 -160 450 -271 716 -289 105 -7 306 0 348 13
18 5 21 4 13 -4 -16 -17 -217 -58 -319 -66 -191 -13 -451 35 -626 117 -302
141 -498 362 -570 642 -118 457 156 929 592 1021 90 19 264 19 354 0 74 -16
207 -75 278 -124 24 -16 104 -85 178 -152 160 -146 213 -187 298 -229 87 -45
152 -60 251 -60 146 0 259 38 406 136 185 122 319 329 368 566 19 91 20 130 5
145 -16 16 -56 -1 -98 -40 l-34 -32 7 43 c13 87 115 254 236 385 60 65 89 84
76 50z m-1155 -90 l32 -37 -24 -7 c-43 -12 -48 -10 -58 28 -18 64 2 70 50 16z
m-86 -43 c4 -21 4 -49 0 -61 -6 -19 -9 -17 -27 22 -15 34 -17 49 -9 67 15 31
28 21 36 -28z m-1172 -33 c67 -63 67 -63 67 -117 l0 -54 -34 33 c-19 18 -48
61 -64 95 -29 58 -47 106 -40 106 2 0 33 -28 71 -63z m1007 -26 c0 -30 -21
-81 -31 -75 -21 12 -2 94 21 94 6 0 10 -8 10 -19z m395 -18 c104 -33 180 -83
125 -83 -10 0 -30 -5 -44 -11 -22 -10 -35 -5 -118 47 -51 32 -97 62 -103 67
-14 13 78 0 140 -20z m725 14 c0 -14 -60 -80 -67 -74 -2 2 1 17 7 33 16 42 60
72 60 41z m-185 -27 c11 -18 -55 -42 -94 -35 l-36 7 40 19 c45 20 81 24 90 9z
m-1710 -116 c66 -37 80 -56 73 -105 -3 -23 -6 -21 -58 28 -49 46 -100 113 -86
113 3 0 35 -16 71 -36z m1435 -125 c63 -41 160 -132 180 -169 10 -18 7 -20
-23 -20 -29 0 -41 7 -72 48 -21 26 -68 77 -104 115 -36 37 -61 67 -55 67 6 0
39 -18 74 -41z m-1109 -34 c15 -9 33 -24 39 -35 9 -17 8 -20 -8 -20 -21 0
-129 67 -151 94 -13 15 -8 14 38 -4 29 -11 66 -27 82 -35z m365 -80 c320 -104
538 -288 629 -530 15 -38 22 -71 18 -76 -4 -4 -24 -10 -44 -14 l-35 -7 -28 72
c-84 213 -249 367 -563 524 -73 36 -133 68 -133 71 0 8 40 -3 156 -40z m1004
-263 c22 -30 40 -59 40 -64 0 -16 -51 -8 -57 10 -3 9 -16 40 -28 69 -30 68 -9
61 45 -15z m-1543 -176 c88 -24 204 -94 410 -247 280 -210 408 -269 586 -269
41 0 78 -4 81 -9 10 -16 -32 -134 -71 -200 -49 -82 -168 -194 -267 -250 -147
-84 -352 -140 -512 -141 -166 0 -368 55 -486 133 -70 47 -168 150 -208 220
-119 207 -114 499 11 641 100 114 293 165 456 122z m-599 -326 c-13 -68 -4
-215 16 -295 25 -95 92 -218 158 -290 161 -175 404 -264 693 -252 210 8 386
65 556 179 151 101 263 249 302 401 9 33 18 61 21 64 3 3 23 9 46 13 47 9 48
5 25 -85 -16 -61 -56 -152 -95 -215 -21 -33 -20 -33 19 9 49 52 94 141 118
234 l18 69 71 27 c39 15 96 42 128 60 31 18 60 31 62 28 9 -9 -17 -117 -53
-222 -62 -180 -152 -323 -280 -446 -140 -135 -278 -208 -508 -271 -146 -40
-368 -50 -526 -24 -361 60 -636 240 -765 501 -71 143 -89 275 -59 419 13 61
52 162 60 154 2 -2 -1 -28 -7 -58z m2203 -233 c-7 -7 -14 -1 -22 17 -10 21
-10 37 -1 72 7 24 12 55 12 67 0 13 3 27 8 31 4 4 8 -34 10 -85 2 -52 -2 -97
-7 -102z m-89 -258 c-10 -30 -22 -54 -27 -54 -5 0 -14 14 -21 30 -11 27 -8 38
25 111 l36 82 3 -58 c2 -37 -4 -76 -16 -111z m-126 -141 c-9 -62 -59 -157
-105 -203 l-41 -39 0 57 c0 56 1 57 70 134 39 43 70 81 70 85 0 5 3 8 6 8 4 0
4 -19 0 -42z m-283 -269 c-21 -37 -114 -124 -153 -144 l-28 -14 12 46 c11 45
17 50 92 94 43 26 83 47 87 48 5 1 0 -13 -10 -30z m-343 -174 c-15 -18 -147
-85 -167 -85 -8 0 -13 7 -11 17 2 13 31 28 93 49 50 18 92 32 94 33 2 1 -2 -6
-9 -14z"/>
<path d="M4258 7010 c-15 -55 -30 -297 -26 -413 5 -133 22 -190 70 -235 14
-12 92 -54 174 -91 168 -77 293 -151 434 -257 126 -95 206 -180 215 -227 9
-47 25 -48 25 -2 0 54 -30 102 -112 181 -138 134 -339 264 -583 379 -135 63
-154 84 -166 188 -5 40 -13 169 -17 287 -4 118 -10 204 -14 190z"/>
<path d="M5199 6054 c80 -39 156 -107 167 -148 8 -33 24 -34 24 -1 0 61 -58
120 -159 162 -93 38 -117 28 -32 -13z"/>
<path d="M6786 7321 c55 -35 64 -45 79 -93 34 -104 53 -115 181 -103 85 8 104
21 104 71 0 62 -53 129 -117 149 -36 10 -27 -9 21 -43 51 -36 77 -92 56 -117
-20 -24 -44 -17 -81 21 -85 90 -159 132 -264 148 l-40 7 61 -40z m174 -107
c22 -20 40 -40 40 -45 0 -14 -56 -10 -69 4 -13 16 -27 77 -17 77 3 0 24 -16
46 -36z"/>
<path d="M7086 7073 c-13 -13 -3 -23 67 -67 73 -46 94 -55 82 -37 -11 18 -143
110 -149 104z"/>
<path d="M7425 6861 c-9 -16 6 -39 41 -66 37 -28 44 -19 23 28 -12 27 -55 52
-64 38z"/>
<path d="M4475 2729 c-15 -45 -7 -173 13 -231 38 -109 124 -204 231 -255 75
-35 194 -43 287 -18 118 32 225 120 288 235 37 67 22 80 -43 39 -93 -59 -231
-84 -323 -59 -74 21 -137 102 -138 178 0 72 -81 7 -96 -78 -11 -64 -11 -64
-54 -30 -45 36 -86 98 -115 179 -22 60 -40 74 -50 40z m187 -292 c20 -9 45
-17 57 -17 19 0 21 6 21 60 0 60 13 80 24 37 7 -31 61 -84 110 -110 57 -29
183 -35 260 -13 32 10 60 15 63 13 9 -10 -86 -81 -147 -111 -59 -28 -74 -31
-160 -31 -82 0 -103 4 -150 26 -30 15 -73 42 -95 62 -43 37 -100 125 -111 170
-6 27 -4 26 42 -20 27 -27 65 -56 86 -66z"/>
</g>
</svg>
